<?xml version="1.0" encoding="UTF-8"?>
<svg xmlns="http://www.w3.org/2000/svg" width="273" height="273" viewBox="0 0 273 273" fill="none">
  <rect width="273" height="273" rx="35.09" fill="#F2CB67"></rect>
  <path d="M206.298 70H161.406C159.631 70 158.012 71.0044 157.211 72.5895L127.356 131.96V74.6925C127.356 72.103 125.251 70 122.658 70H65.6982C63.1055 70 61 72.103 61 74.6925V115.152C61 117.741 63.1055 119.844 65.6982 119.844H112.554C113.262 119.86 113.921 120.174 114.361 120.723L125.722 134.455C125.863 134.628 125.895 134.879 125.801 135.099L94.9873 196.368C93.416 199.491 95.6944 203.163 99.1827 203.163H144.075C145.85 203.163 147.469 202.159 148.27 200.574L210.494 76.7955C212.065 73.6724 209.787 70 206.298 70Z" fill="black"></path>
</svg>
